<svg width="406" height="103" viewBox="0 0 406 103" fill="none" xmlns="http://www.w3.org/2000/svg">
<path d="M14.6704 14.0424C14.6704 11.8576 16.0438 10.297 17.8541 10.297C19.165 10.297 20.351 10.7964 21.0377 11.483L23.2225 6.61394C21.4122 5.05333 18.7904 4.05454 16.3559 4.05454C10.9874 4.05454 7.24194 7.92484 7.24194 13.3558V16.7267H2.56012V23.0315H7.24194V49H14.6704V23.0315H21.9741V16.7267H14.6704V14.0424ZM49.885 16.7267V37.1394C49.3856 40.5727 46.0771 43.257 42.082 43.257C38.0868 43.257 35.2777 40.1358 35.2777 35.7661V16.7267H27.9117V37.2642C27.9117 44.5679 32.8432 49.7491 39.8971 49.7491C44.142 49.7491 47.8874 47.6891 49.885 44.6927V49H57.5008V16.7267H49.885ZM65.8934 49H73.5092V5.36545H65.8934V49ZM81.9262 49H89.542V5.36545H81.9262V49ZM109.882 49.7491C117.435 49.7491 122.554 45.7539 122.554 39.5739C122.554 32.8321 116.686 30.9594 111.255 29.4612C106.324 28.0255 104.638 27.4012 104.638 25.3412C104.638 23.5309 106.698 22.4697 109.383 22.4697C112.192 22.4697 115.5 23.4685 118.559 25.4036L121.743 19.8479C118.247 17.5382 113.815 15.9776 109.383 15.9776C102.204 15.9776 97.2099 20.0976 97.2099 26.1527C97.2723 31.8958 101.704 33.8933 108.696 35.7036C112.379 36.7024 115.188 37.5139 115.188 40.0109C115.188 42.0085 113.066 43.3194 110.007 43.3194C105.949 43.3194 102.329 41.8212 99.2075 39.5739L95.7741 44.88C99.6445 48.0012 104.951 49.7491 109.882 49.7491ZM145.277 42.0709C144.59 42.7576 143.404 43.257 142.093 43.257C140.283 43.257 138.909 41.6964 138.909 39.5115V23.0315H146.213V16.7267H138.909V7.86242H131.481V16.7267H126.799V23.0315H131.481V40.4479C131.481 45.8788 135.226 49.7491 140.595 49.7491C143.029 49.7491 145.651 48.7503 147.461 47.1897L145.277 42.0709ZM167.418 15.9776C163.361 15.9776 159.116 17.1012 154.559 19.3485L157.181 24.6545C159.927 23.2812 162.861 22.22 165.92 22.22C171.788 22.22 173.848 25.8406 173.848 29.5861V30.46C170.914 29.3364 167.73 28.7121 164.796 28.7121C157.555 28.7121 151.625 33.0818 151.625 39.4491C151.625 45.6915 156.806 49.7491 163.673 49.7491C167.418 49.7491 171.476 48.1261 173.848 45.1297V49H181.276V29.5861C181.276 21.4085 175.97 15.9776 167.418 15.9776ZM165.358 44.1933C161.738 44.1933 159.053 42.2582 159.053 39.1994C159.053 36.1406 162.112 34.0182 165.92 34.0182C168.791 34.0182 171.476 34.4552 173.848 35.2667V38.8873C172.974 42.3206 169.041 44.1933 165.358 44.1933ZM205.066 49.7491C210.185 49.7491 214.492 47.6267 217.614 44.3182L212.495 39.8861C210.684 41.9461 207.938 43.257 205.129 43.257C199.823 43.257 195.391 38.5127 195.391 32.8321C195.391 27.2139 199.823 22.4697 205.129 22.4697C207.875 22.4697 210.56 23.7806 212.308 25.7158L217.426 21.2212C214.368 18.0376 210.06 15.9776 205.191 15.9776C195.765 15.9776 187.837 23.6558 187.837 32.8321C187.837 42.0085 195.765 49.7491 205.066 49.7491ZM254.063 16.7267H245.074L231.091 32.0206V5.36545H223.475V49H231.091V40.9473L235.648 36.1406L244.762 49H253.626L240.767 31.1467L254.063 16.7267ZM274.196 49.7491C279.315 49.7491 283.622 47.6267 286.744 44.3182L281.625 39.8861C279.814 41.9461 277.068 43.257 274.259 43.257C268.953 43.257 264.521 38.5127 264.521 32.8321C264.521 27.2139 268.953 22.4697 274.259 22.4697C277.005 22.4697 279.69 23.7806 281.438 25.7158L286.556 21.2212C283.498 18.0376 279.19 15.9776 274.321 15.9776C264.895 15.9776 256.967 23.6558 256.967 32.8321C256.967 42.0085 264.895 49.7491 274.196 49.7491ZM292.73 49H300.346V5.36545H292.73V49ZM330.611 16.7267V37.1394C330.112 40.5727 326.803 43.257 322.808 43.257C318.813 43.257 316.004 40.1358 316.004 35.7661V16.7267H308.638V37.2642C308.638 44.5679 313.569 49.7491 320.623 49.7491C324.868 49.7491 328.614 47.6891 330.611 44.6927V49H338.227V16.7267H330.611ZM365.659 15.9776C360.852 15.9776 356.982 18.1624 354.423 21.8455V5.36545H346.807V49H354.423V43.8812C356.982 47.5642 360.852 49.7491 365.659 49.7491C374.211 49.7491 380.454 42.7576 380.454 32.8321C380.454 22.9691 374.211 15.9776 365.659 15.9776ZM363.599 43.257C358.231 43.257 354.485 38.8873 354.485 32.8321C354.485 26.777 358.231 22.4697 363.599 22.4697C369.03 22.4697 372.9 26.777 372.9 32.8321C372.9 38.8873 369.03 43.257 363.599 43.257Z" fill="white"/>
<path d="M213.273 69.6893C213.736 69.6893 214.078 69.8356 214.297 70.1282C214.541 70.4209 214.663 70.75 214.663 71.1158C214.663 71.4816 214.541 71.823 214.297 72.14C214.078 72.4326 213.736 72.5789 213.273 72.5789C212.688 72.6033 212.102 72.6033 211.517 72.5789C210.956 72.5301 210.396 72.4813 209.835 72.4326C209.859 74.3589 209.822 76.2853 209.725 78.2117C209.652 80.1381 209.457 82.0522 209.14 83.9542C209.091 84.3688 208.872 84.6736 208.481 84.8687C208.091 85.0637 207.713 85.1003 207.347 84.9784C206.933 84.8565 206.64 84.6248 206.47 84.2834C206.323 83.9664 206.287 83.6007 206.36 83.1861C206.653 81.3329 206.811 79.4797 206.835 77.6265C206.884 75.7732 206.884 73.9078 206.835 72.0302C205.909 71.8839 204.97 71.7376 204.019 71.5913C203.068 71.4206 202.129 71.2743 201.203 71.1524C200.788 71.1036 200.495 70.8842 200.325 70.494C200.13 70.0795 200.081 69.7015 200.178 69.3601C200.3 68.9456 200.532 68.6652 200.873 68.5189C201.215 68.3482 201.581 68.2872 201.971 68.336C202.775 68.4579 203.58 68.592 204.385 68.7383C205.189 68.8602 206.006 68.9822 206.835 69.1041C206.811 68.9822 206.799 68.7993 206.799 68.5554C206.799 66.3608 206.787 64.1906 206.762 62.0448C206.762 59.899 206.872 57.7287 207.091 55.5341C207.14 55.144 207.287 54.8026 207.53 54.51C207.799 54.2174 208.14 54.0711 208.555 54.0711C208.92 54.0711 209.262 54.2174 209.579 54.51C209.92 54.8026 210.066 55.144 210.018 55.5341C209.774 57.875 209.652 60.2038 209.652 62.5203C209.676 64.8124 209.713 67.1411 209.762 69.5064C210.347 69.5552 210.932 69.604 211.517 69.6527C212.102 69.6771 212.688 69.6893 213.273 69.6893ZM219.345 81.467C218.516 81.1013 217.857 80.6014 217.369 79.9674C216.906 79.309 216.577 78.5897 216.382 77.8093C216.211 77.029 216.162 76.2244 216.236 75.3953C216.309 74.5418 216.479 73.7249 216.748 72.9446C216.967 72.335 217.211 71.701 217.479 71.0427C217.772 70.3843 218.113 69.7747 218.503 69.2138C218.894 68.653 219.357 68.1775 219.893 67.7873C220.43 67.3728 221.064 67.1046 221.795 66.9826C222.551 66.8607 223.307 66.8241 224.063 66.8729C224.843 66.8973 225.611 66.9705 226.367 67.0924C226.709 67.1411 227.038 67.2265 227.355 67.3484C227.672 67.4459 227.989 67.5557 228.306 67.6776C228.33 67.3118 228.489 67.007 228.781 66.7632C229.098 66.5193 229.428 66.3974 229.769 66.3974C230.184 66.3974 230.513 66.5437 230.757 66.8363C231.025 67.1046 231.183 67.4338 231.232 67.8239C231.354 68.9456 231.403 70.0673 231.378 71.189C231.378 72.3106 231.342 73.4323 231.269 74.554C231.22 75.6757 231.171 76.7974 231.122 77.9191C231.098 79.0408 231.11 80.1624 231.159 81.2841C231.183 81.7474 231.037 82.101 230.72 82.3449C230.427 82.5643 230.098 82.6741 229.732 82.6741C229.367 82.6741 229.025 82.5643 228.708 82.3449C228.416 82.101 228.257 81.7474 228.233 81.2841C226.843 81.8694 225.368 82.2107 223.807 82.3083C222.246 82.3814 220.759 82.101 219.345 81.467ZM219.601 73.5299C219.454 73.9688 219.32 74.4687 219.198 75.0295C219.076 75.5904 219.04 76.1268 219.089 76.6389C219.137 77.151 219.296 77.6265 219.564 78.0654C219.832 78.4799 220.271 78.7725 220.881 78.9432C222.124 79.3334 223.368 79.4431 224.612 79.2724C225.88 79.1017 227.062 78.6628 228.16 77.9557C228.257 76.7608 228.33 75.6026 228.379 74.4809C228.452 73.3592 228.477 72.2253 228.452 71.0792C228.038 70.811 227.611 70.5794 227.172 70.3843C226.758 70.1648 226.294 70.0185 225.782 69.9454C225.27 69.8722 224.721 69.8234 224.136 69.799C223.575 69.7503 223.027 69.7503 222.49 69.799C222.441 69.799 222.307 69.8356 222.088 69.9088C221.893 69.9575 221.783 69.9941 221.759 70.0185C221.515 70.1404 221.295 70.3355 221.1 70.6037C220.783 71.0427 220.503 71.5182 220.259 72.0302C220.015 72.5179 219.796 73.0178 219.601 73.5299ZM236.28 74.3346C235.646 73.8713 235.195 73.2982 234.926 72.6155C234.658 71.9083 234.646 71.1646 234.89 70.3843C235.134 69.6771 235.512 69.0431 236.024 68.4823C236.536 67.9214 237.121 67.4703 237.779 67.1289C238.511 66.7388 239.291 66.434 240.12 66.2145C240.949 65.9951 241.791 65.8731 242.644 65.8488C243.497 65.8244 244.339 65.9097 245.168 66.1048C246.021 66.2755 246.826 66.5559 247.582 66.9461C247.996 67.1655 248.228 67.4581 248.277 67.8239C248.326 68.1897 248.252 68.5311 248.057 68.8481C247.887 69.1651 247.618 69.3967 247.253 69.543C246.887 69.6893 246.497 69.6527 246.082 69.4333C245.497 69.1163 244.839 68.909 244.107 68.8115C243.376 68.7139 242.632 68.7139 241.876 68.8115C241.144 68.8846 240.449 69.0675 239.791 69.3601C239.133 69.6527 238.584 70.0307 238.145 70.494C238.023 70.6159 237.938 70.7013 237.889 70.75C237.865 70.7988 237.816 70.9085 237.743 71.0792L237.67 71.4816C237.743 71.701 237.804 71.8352 237.852 71.8839C238.34 72.2009 238.84 72.4082 239.352 72.5057C239.889 72.5789 240.425 72.6276 240.961 72.652C241.717 72.7008 242.485 72.7496 243.266 72.7983C244.07 72.8227 244.839 72.9203 245.57 73.091C246.326 73.2616 247.021 73.5421 247.655 73.9322C248.289 74.3224 248.825 74.8954 249.264 75.6513C249.752 76.5048 249.972 77.3948 249.923 78.3214C249.898 79.2236 249.545 80.0405 248.862 80.7721C248.179 81.5036 247.387 82.0157 246.485 82.3083C245.582 82.5765 244.668 82.7716 243.741 82.8935C242.912 82.991 242.047 83.0154 241.144 82.9667C240.267 82.9179 239.413 82.7716 238.584 82.5277C237.779 82.3083 237.023 81.9669 236.316 81.5036C235.609 81.0159 235.024 80.3819 234.561 79.6016C234.341 79.2115 234.305 78.8457 234.451 78.5043C234.597 78.1385 234.817 77.8703 235.109 77.6996C235.426 77.5045 235.768 77.4314 236.133 77.4802C236.523 77.5289 236.84 77.7484 237.084 78.1385C237.426 78.6994 237.901 79.1261 238.511 79.4187C239.12 79.7113 239.779 79.9186 240.486 80.0405C241.218 80.1381 241.949 80.1624 242.681 80.1137C243.412 80.0405 244.07 79.943 244.656 79.8211C244.973 79.7479 245.29 79.6504 245.607 79.5285C245.948 79.3821 246.229 79.2115 246.448 79.0164C246.692 78.8213 246.863 78.6018 246.96 78.358C247.058 78.0898 247.045 77.7972 246.923 77.4802C246.68 76.8705 246.265 76.4316 245.68 76.1634C245.119 75.8952 244.522 75.7367 243.888 75.6879C243.254 75.6391 242.607 75.6147 241.949 75.6147C241.291 75.6147 240.632 75.5904 239.974 75.5416C239.316 75.4684 238.669 75.3465 238.035 75.1758C237.401 75.0051 236.816 74.7247 236.28 74.3346ZM253.434 74.554C253.337 74.2614 253.324 73.9566 253.398 73.6396C253.227 70.6891 253.044 67.7629 252.849 64.8612C252.654 61.9351 252.666 58.9967 252.885 56.0462C252.934 55.6317 253.081 55.2903 253.324 55.0221C253.593 54.7294 253.934 54.5831 254.349 54.5831C254.739 54.5831 255.092 54.7294 255.409 55.0221C255.726 55.2903 255.86 55.6317 255.812 56.0462C255.617 58.7041 255.592 61.3376 255.738 63.9468C255.885 66.5315 256.043 69.1529 256.214 71.8108C257.579 70.9573 258.945 70.1282 260.311 69.3236C261.7 68.5189 263.054 67.6654 264.371 66.7632C264.761 66.495 265.126 66.434 265.468 66.5803C265.834 66.7022 266.102 66.9217 266.273 67.2387C266.468 67.5557 266.541 67.9093 266.492 68.2994C266.443 68.6896 266.224 69.0187 265.834 69.287C264.517 70.1892 263.176 71.0427 261.81 71.8473C260.469 72.6276 259.116 73.4323 257.75 74.2614C259.384 75.3587 261.006 76.4682 262.615 77.5899C264.224 78.7116 265.797 79.8942 267.333 81.1378C267.65 81.4061 267.797 81.7596 267.772 82.1986C267.748 82.6131 267.602 82.9545 267.333 83.2227C267.016 83.5153 266.663 83.6494 266.273 83.625C265.907 83.6007 265.565 83.4665 265.248 83.2227C263.834 82.0766 262.395 80.9915 260.932 79.9674C259.469 78.9432 257.982 77.9191 256.47 76.8949C256.494 77.8215 256.494 78.7603 256.47 79.7113C256.47 80.6623 256.446 81.6011 256.397 82.5277C256.372 83.0154 256.202 83.369 255.885 83.5885C255.592 83.8323 255.263 83.9542 254.897 83.9542C254.531 83.9542 254.202 83.8323 253.91 83.5885C253.617 83.369 253.483 83.0154 253.507 82.5277C253.556 81.211 253.568 79.8942 253.544 78.5775C253.544 77.2363 253.507 75.8952 253.434 74.554ZM283.756 82.9301C283.415 83.052 283.037 83.0154 282.622 82.8204C282.232 82.6253 282.013 82.3327 281.964 81.9425C281.623 79.7967 281.403 77.6752 281.306 75.5782C281.232 73.4567 281.196 71.3231 281.196 69.1772C281.196 68.8115 281.293 68.5189 281.488 68.2994C281.684 68.0799 281.915 67.9336 282.183 67.8605C282.452 67.7873 282.732 67.7751 283.025 67.8239C283.317 67.8727 283.561 67.9946 283.756 68.1897C284.317 67.7264 284.914 67.324 285.548 66.9826C286.182 66.6413 286.816 66.4218 287.45 66.3243C288.109 66.2023 288.755 66.2389 289.389 66.434C290.023 66.6047 290.62 66.9826 291.181 67.5679C291.645 68.0556 292.047 68.5798 292.388 69.1407C292.73 69.6771 293.035 70.2502 293.303 70.8598C293.669 69.9332 294.181 69.0797 294.839 68.2994C295.497 67.5191 296.339 66.9948 297.363 66.7266C298.119 66.5315 298.716 66.5803 299.155 66.8729C299.594 67.1411 300.008 67.5679 300.399 68.1531C300.813 68.7627 301.191 69.3845 301.532 70.0185C301.898 70.6525 302.24 71.2987 302.557 71.9571C302.874 72.6155 303.178 73.2738 303.471 73.9322C303.764 74.5906 304.056 75.2368 304.349 75.8708C304.69 76.5779 304.983 77.2851 305.227 77.9922C305.495 78.675 305.666 79.4065 305.739 80.1868C305.788 80.6014 305.641 80.9549 305.3 81.2476C304.983 81.5158 304.642 81.6499 304.276 81.6499C303.861 81.6499 303.52 81.5158 303.252 81.2476C303.008 80.9549 302.861 80.6014 302.813 80.1868C302.764 79.6016 302.605 79.0408 302.337 78.5043C302.093 77.9435 301.849 77.3948 301.606 76.8584C301.337 76.2975 301.069 75.7245 300.801 75.1392C300.557 74.554 300.301 73.981 300.033 73.4201C299.765 72.8593 299.472 72.2985 299.155 71.7376C298.862 71.1768 298.545 70.6281 298.204 70.0917C298.155 70.0185 298.106 69.9454 298.058 69.8722C298.009 69.799 297.96 69.7259 297.911 69.6527C297.424 69.921 297.07 70.177 296.851 70.4209C296.631 70.6647 296.424 70.9939 296.229 71.4084C296.058 71.7742 295.912 72.1643 295.79 72.5789C295.692 72.969 295.607 73.3714 295.534 73.7859C295.388 74.5662 295.278 75.3831 295.205 76.2365C295.156 76.8705 295.156 77.4802 295.205 78.0654C295.278 78.6506 295.253 79.2602 295.132 79.8942C295.058 80.2844 294.827 80.577 294.437 80.7721C294.071 80.9671 293.705 81.0159 293.339 80.9184C292.998 80.8208 292.742 80.6501 292.571 80.4063C292.425 80.1381 292.327 79.8333 292.279 79.4919C292.181 78.7116 292.071 77.9069 291.949 77.0778C291.827 76.2487 291.669 75.4319 291.474 74.6272C291.279 73.7981 291.023 73.0056 290.706 72.2497C290.413 71.4694 290.023 70.75 289.535 70.0917C289.194 69.6527 288.84 69.3601 288.475 69.2138C288.133 69.0675 287.707 69.1285 287.194 69.3967C286.634 69.6893 286.085 70.0429 285.548 70.4574C285.012 70.872 284.537 71.3353 284.122 71.8473C284.146 73.408 284.195 74.9686 284.268 76.5292C284.366 78.0654 284.537 79.6016 284.78 81.1378C284.829 81.5524 284.768 81.9303 284.597 82.2717C284.451 82.5887 284.171 82.8082 283.756 82.9301ZM310.604 81.467C309.774 81.1013 309.116 80.6014 308.628 79.9674C308.165 79.309 307.836 78.5897 307.641 77.8093C307.47 77.029 307.421 76.2244 307.494 75.3953C307.568 74.5418 307.738 73.7249 308.007 72.9446C308.226 72.335 308.47 71.701 308.738 71.0427C309.031 70.3843 309.372 69.7747 309.762 69.2138C310.152 68.653 310.616 68.1775 311.152 67.7873C311.689 67.3728 312.323 67.1046 313.054 66.9826C313.81 66.8607 314.566 66.8241 315.322 66.8729C316.102 66.8973 316.87 66.9705 317.626 67.0924C317.968 67.1411 318.297 67.2265 318.614 67.3484C318.931 67.4459 319.248 67.5557 319.565 67.6776C319.589 67.3118 319.748 67.007 320.04 66.7632C320.357 66.5193 320.686 66.3974 321.028 66.3974C321.442 66.3974 321.772 66.5437 322.015 66.8363C322.284 67.1046 322.442 67.4338 322.491 67.8239C322.613 68.9456 322.662 70.0673 322.637 71.189C322.637 72.3106 322.601 73.4323 322.528 74.554C322.479 75.6757 322.43 76.7974 322.381 77.9191C322.357 79.0408 322.369 80.1624 322.418 81.2841C322.442 81.7474 322.296 82.101 321.979 82.3449C321.686 82.5643 321.357 82.6741 320.991 82.6741C320.626 82.6741 320.284 82.5643 319.967 82.3449C319.675 82.101 319.516 81.7474 319.492 81.2841C318.102 81.8694 316.626 82.2107 315.066 82.3083C313.505 82.3814 312.018 82.101 310.604 81.467ZM310.86 73.5299C310.713 73.9688 310.579 74.4687 310.457 75.0295C310.335 75.5904 310.299 76.1268 310.347 76.6389C310.396 77.151 310.555 77.6265 310.823 78.0654C311.091 78.4799 311.53 78.7725 312.14 78.9432C313.383 79.3334 314.627 79.4431 315.871 79.2724C317.139 79.1017 318.321 78.6628 319.419 77.9557C319.516 76.7608 319.589 75.6026 319.638 74.4809C319.711 73.3592 319.736 72.2253 319.711 71.0792C319.297 70.811 318.87 70.5794 318.431 70.3843C318.016 70.1648 317.553 70.0185 317.041 69.9454C316.529 69.8722 315.98 69.8234 315.395 69.799C314.834 69.7503 314.286 69.7503 313.749 69.799C313.7 69.799 313.566 69.8356 313.347 69.9088C313.152 69.9575 313.042 69.9941 313.018 70.0185C312.774 70.1404 312.554 70.3355 312.359 70.6037C312.042 71.0427 311.762 71.5182 311.518 72.0302C311.274 72.5179 311.055 73.0178 310.86 73.5299ZM326.405 78.9432C326.405 77.8947 326.478 76.834 326.624 75.7611C326.795 74.4687 326.966 73.1885 327.136 71.9205C327.307 70.6281 327.38 69.3236 327.356 68.0068C327.356 67.5435 327.502 67.1899 327.795 66.9461C328.087 66.7022 328.416 66.5803 328.782 66.5803C329.148 66.5803 329.489 66.7022 329.806 66.9461C330.123 67.1899 330.282 67.5435 330.282 68.0068C331.233 67.9336 332.135 67.8971 332.988 67.8971C333.964 67.9214 334.793 68.2019 335.476 68.7383C336.158 69.2748 336.671 69.9941 337.012 70.8964C337.305 71.7254 337.475 72.5789 337.524 73.4567C337.573 74.3346 337.609 75.2124 337.634 76.0902C337.658 77.3339 337.695 78.5775 337.743 79.8211C337.792 81.0403 337.817 82.2717 337.817 83.5153C337.817 84.003 337.658 84.3566 337.341 84.576C337.048 84.8199 336.719 84.9418 336.354 84.9418C336.012 84.9418 335.683 84.8199 335.366 84.576C335.073 84.3566 334.927 84.003 334.927 83.5153C334.927 82.3449 334.903 81.1988 334.854 80.0771C334.829 78.9554 334.793 77.8093 334.744 76.6389C334.695 76.0049 334.671 75.3587 334.671 74.7003C334.695 74.0176 334.647 73.3958 334.525 72.8349C334.452 72.4935 334.378 72.2009 334.305 71.9571C334.232 71.6888 334.098 71.4328 333.903 71.189C333.854 71.0914 333.744 71.0061 333.574 70.9329C333.427 70.8598 333.293 70.8232 333.171 70.8232C332.806 70.8232 332.464 70.8476 332.147 70.8964C331.83 70.9451 331.501 71.0183 331.16 71.1158C331.013 71.1646 330.867 71.2133 330.721 71.2621C330.574 71.3109 330.44 71.3718 330.318 71.445C330.075 72.3228 329.892 73.1641 329.77 73.9688C329.672 74.7491 329.575 75.5416 329.477 76.3463C329.404 76.9315 329.355 77.5289 329.331 78.1385C329.331 78.7238 329.306 79.309 329.258 79.8942C329.233 80.4794 329.16 81.0647 329.038 81.6499C328.941 82.2351 328.758 82.796 328.49 83.3324C328.27 83.747 327.977 83.9786 327.612 84.0274C327.246 84.1005 326.905 84.0396 326.588 83.8445C326.295 83.6738 326.063 83.4056 325.893 83.0398C325.746 82.6741 325.771 82.2839 325.966 81.8694C326.185 81.4304 326.307 80.9549 326.332 80.4429C326.356 79.9308 326.38 79.4309 326.405 78.9432ZM343.998 81.467C343.169 81.1013 342.511 80.6014 342.023 79.9674C341.56 79.309 341.23 78.5897 341.035 77.8093C340.865 77.029 340.816 76.2244 340.889 75.3953C340.962 74.5418 341.133 73.7249 341.401 72.9446C341.621 72.335 341.864 71.701 342.133 71.0427C342.425 70.3843 342.767 69.7747 343.157 69.2138C343.547 68.653 344.01 68.1775 344.547 67.7873C345.083 67.3728 345.717 67.1046 346.449 66.9826C347.205 66.8607 347.961 66.8241 348.716 66.8729C349.497 66.8973 350.265 66.9705 351.021 67.0924C351.362 67.1411 351.691 67.2265 352.008 67.3484C352.325 67.4459 352.642 67.5557 352.959 67.6776C352.984 67.3118 353.142 67.007 353.435 66.7632C353.752 66.5193 354.081 66.3974 354.422 66.3974C354.837 66.3974 355.166 66.5437 355.41 66.8363C355.678 67.1046 355.837 67.4338 355.885 67.8239C356.007 68.9456 356.056 70.0673 356.032 71.189C356.032 72.3106 355.995 73.4323 355.922 74.554C355.873 75.6757 355.825 76.7974 355.776 77.9191C355.751 79.0408 355.764 80.1624 355.812 81.2841C355.837 81.7474 355.69 82.101 355.373 82.3449C355.081 82.5643 354.752 82.6741 354.386 82.6741C354.02 82.6741 353.679 82.5643 353.362 82.3449C353.069 82.101 352.911 81.7474 352.886 81.2841C351.496 81.8694 350.021 82.2107 348.46 82.3083C346.9 82.3814 345.412 82.101 343.998 81.467ZM344.254 73.5299C344.108 73.9688 343.974 74.4687 343.852 75.0295C343.73 75.5904 343.693 76.1268 343.742 76.6389C343.791 77.151 343.949 77.6265 344.218 78.0654C344.486 78.4799 344.925 78.7725 345.534 78.9432C346.778 79.3334 348.021 79.4431 349.265 79.2724C350.533 79.1017 351.716 78.6628 352.813 77.9557C352.911 76.7608 352.984 75.6026 353.033 74.4809C353.106 73.3592 353.13 72.2253 353.106 71.0792C352.691 70.811 352.264 70.5794 351.825 70.3843C351.411 70.1648 350.948 70.0185 350.436 69.9454C349.923 69.8722 349.375 69.8234 348.79 69.799C348.229 69.7503 347.68 69.7503 347.144 69.799C347.095 69.799 346.961 69.8356 346.741 69.9088C346.546 69.9575 346.437 69.9941 346.412 70.0185C346.168 70.1404 345.949 70.3355 345.754 70.6037C345.437 71.0427 345.156 71.5182 344.912 72.0302C344.669 72.5179 344.449 73.0178 344.254 73.5299ZM359.836 91.8182C360.372 92.3303 360.994 92.6839 361.701 92.879C362.408 93.0984 363.115 93.1716 363.823 93.0984C364.53 93.0253 365.2 92.818 365.834 92.4766C366.468 92.1352 366.993 91.6597 367.407 91.0501C368.285 89.8065 368.846 88.4288 369.09 86.9169C369.358 85.4295 369.468 83.9299 369.419 82.418C368.248 82.6131 367.041 82.6497 365.798 82.5277C364.579 82.4302 363.42 82.1742 362.323 81.7596C361.762 81.5402 361.226 81.2841 360.714 80.9915C360.226 80.6745 359.836 80.2356 359.543 79.6748C359.031 78.7238 358.812 77.6752 358.885 76.5292C358.934 75.4319 359.116 74.3711 359.433 73.347C359.775 72.2985 360.153 71.2621 360.567 70.238C360.787 69.7503 361.018 69.2382 361.262 68.7017C361.53 68.1409 361.872 67.641 362.286 67.2021C362.701 66.7388 363.176 66.3852 363.713 66.1414C364.249 65.8975 364.822 65.7512 365.432 65.7025C365.334 65.3611 365.334 65.0441 365.432 64.7515C365.53 64.4345 365.737 64.1784 366.054 63.9834C366.371 63.7883 366.737 63.7395 367.151 63.837C367.59 63.9346 367.895 64.154 368.066 64.4954C368.163 64.7149 368.248 64.9343 368.322 65.1538C368.419 65.3733 368.504 65.5927 368.578 65.8122C369.065 67.1289 369.504 68.4579 369.894 69.799C370.309 71.1402 370.699 72.4935 371.065 73.8591C371.504 75.4684 371.833 77.1022 372.052 78.7603C372.272 80.4185 372.357 82.101 372.308 83.8079C372.284 84.7589 372.199 85.7343 372.052 86.7341C371.93 87.7338 371.711 88.697 371.394 89.6236C371.077 90.5502 370.662 91.4281 370.15 92.2571C369.638 93.1106 368.98 93.8421 368.175 94.4517C367.419 95.037 366.578 95.4515 365.651 95.6954C364.749 95.9636 363.823 96.0733 362.872 96.0245C361.945 95.9758 361.031 95.7685 360.128 95.4027C359.251 95.037 358.47 94.5249 357.787 93.8665C357.446 93.5495 357.3 93.1959 357.349 92.8058C357.397 92.44 357.556 92.123 357.824 91.8548C358.068 91.611 358.373 91.4647 358.738 91.4159C359.129 91.3671 359.494 91.5012 359.836 91.8182ZM363.896 79.1993C364.749 79.4187 365.627 79.5772 366.529 79.6748C367.456 79.7479 368.346 79.687 369.199 79.4919C369.053 78.2483 368.834 77.0534 368.541 75.9074C368.273 74.7613 367.968 73.603 367.627 72.4326C367.432 71.7498 367.224 71.0792 367.005 70.4209C366.81 69.7625 366.602 69.1041 366.383 68.4457C366.31 68.4945 366.224 68.5311 366.127 68.5554C366.029 68.5554 365.92 68.5676 365.798 68.592C365.066 68.592 364.505 68.9212 364.115 69.5796C363.847 69.9941 363.628 70.433 363.457 70.8964C363.408 71.0183 363.359 71.1402 363.311 71.2621C363.262 71.3597 363.213 71.4694 363.164 71.5913C362.798 72.4691 362.481 73.3226 362.213 74.1517C361.969 74.9564 361.823 75.7489 361.774 76.5292V77.1875C361.799 77.3582 361.823 77.4923 361.847 77.5899C361.896 77.8093 361.921 77.9435 361.921 77.9922C361.945 78.041 362.018 78.1629 362.14 78.358C362.286 78.4799 362.421 78.5775 362.542 78.6506C362.664 78.7238 362.738 78.7725 362.762 78.7969C362.957 78.8701 363.14 78.9432 363.311 79.0164C363.506 79.0895 363.701 79.1505 363.896 79.1993ZM376.003 68.2628C376.466 67.6288 377.015 67.068 377.649 66.5803C378.307 66.0926 379.002 65.7147 379.733 65.4464C380.465 65.1538 381.221 65.0075 382.001 65.0075C382.782 64.9831 383.562 65.1294 384.342 65.4464C385.098 65.739 385.781 66.1414 386.39 66.6535C387 67.1411 387.476 67.7751 387.817 68.5554C388.085 69.1407 388.244 69.7747 388.292 70.4574C388.341 71.1402 388.158 71.762 387.744 72.3228C387.378 72.8349 386.927 73.2251 386.39 73.4933C385.878 73.7615 385.318 73.9566 384.708 74.0785C384.123 74.2004 383.513 74.2614 382.879 74.2614C382.269 74.2614 381.684 74.2492 381.123 74.2248C380.489 74.2004 379.855 74.1517 379.221 74.0785C378.612 74.0054 377.99 73.9322 377.356 73.8591C377.551 74.9564 377.941 75.9317 378.526 76.7852C379.112 77.6387 379.904 78.2848 380.904 78.7238C381.172 78.8213 381.379 78.8945 381.526 78.9432C381.599 78.9676 381.66 78.992 381.709 79.0164C381.782 79.0164 381.855 79.0164 381.928 79.0164C382.123 79.0408 382.282 79.0651 382.404 79.0895C382.55 79.0895 382.684 79.0773 382.806 79.053C382.977 79.0286 383.086 79.0164 383.135 79.0164C383.208 78.992 383.281 78.9676 383.355 78.9432C383.623 78.8701 383.854 78.7847 384.05 78.6872C384.269 78.5897 384.525 78.4312 384.818 78.2117C384.964 78.0898 385.159 77.9069 385.403 77.663C385.647 77.4192 385.854 77.1997 386.025 77.0047C386.269 76.6633 386.561 76.4316 386.903 76.3097C387.268 76.1878 387.634 76.2365 388 76.456C388.317 76.6511 388.536 76.9559 388.658 77.3704C388.805 77.7606 388.756 78.1263 388.512 78.4677C387.805 79.4187 386.963 80.2356 385.988 80.9184C385.037 81.5767 383.94 81.9303 382.696 81.9791C381.696 82.0279 380.733 81.8572 379.807 81.467C378.88 81.0525 378.063 80.5038 377.356 79.8211C376.478 78.9676 375.783 77.98 375.271 76.8584C374.759 75.7367 374.479 74.5906 374.43 73.4201C374.21 73.2495 374.04 73.0422 373.918 72.7983C373.82 72.5301 373.784 72.2619 373.808 71.9937C373.857 71.7254 373.954 71.4816 374.101 71.2621C374.247 71.0183 374.466 70.8598 374.759 70.7866C375.027 69.8844 375.442 69.0431 376.003 68.2628ZM384.781 69.1407C384.513 68.7993 384.098 68.4945 383.537 68.2263C383.074 68.0312 382.526 67.9336 381.892 67.9336C381.282 67.9336 380.758 68.0434 380.319 68.2628C379.758 68.5311 379.258 68.909 378.819 69.3967C378.38 69.86 378.027 70.3843 377.758 70.9695C378.344 71.0427 378.929 71.1158 379.514 71.189C380.099 71.2621 380.684 71.3109 381.27 71.3353C381.587 71.3353 381.904 71.3353 382.221 71.3353C382.538 71.3353 382.855 71.3231 383.172 71.2987C383.269 71.2987 383.355 71.2987 383.428 71.2987C383.525 71.2743 383.623 71.2621 383.72 71.2621C383.94 71.2133 384.098 71.189 384.196 71.189C384.318 71.1646 384.44 71.128 384.562 71.0792C384.659 71.0548 384.781 71.0183 384.927 70.9695C385.049 70.9207 385.122 70.8842 385.147 70.8598C385.171 70.8354 385.208 70.811 385.257 70.7866L385.366 70.3477C385.318 70.2502 385.281 70.1648 385.257 70.0917C385.257 69.9941 385.232 69.9088 385.183 69.8356C385.159 69.7625 385.098 69.6527 385.001 69.5064C384.927 69.3601 384.854 69.2382 384.781 69.1407ZM391.84 67.5679C391.865 67.1046 392.035 66.7632 392.352 66.5437C392.669 66.2999 393.011 66.178 393.377 66.178C393.742 66.178 394.059 66.2999 394.328 66.5437C394.62 66.7632 394.754 67.1046 394.73 67.5679C394.73 67.7142 394.718 67.8727 394.693 68.0434C394.693 68.1897 394.693 68.336 394.693 68.4823C395.474 68.0921 396.291 67.7629 397.144 67.4947C398.022 67.2021 398.887 67.0192 399.741 66.9461C400.619 66.8729 401.46 66.9461 402.265 67.1655C403.094 67.3606 403.85 67.7508 404.533 68.336C404.874 68.653 405.02 68.9944 404.971 69.3601C404.947 69.7259 404.801 70.0429 404.533 70.3111C404.289 70.555 403.972 70.7135 403.582 70.7866C403.191 70.8354 402.813 70.7135 402.448 70.4209C402.179 70.2014 401.875 70.0429 401.533 69.9454C401.216 69.8478 400.863 69.8112 400.472 69.8356C400.107 69.8356 399.729 69.8722 399.339 69.9454C398.973 70.0185 398.619 70.1039 398.278 70.2014C396.986 70.6159 395.778 71.1646 394.657 71.8473C394.706 73.0422 394.779 74.237 394.876 75.4319C394.974 76.4316 395.059 77.468 395.132 78.5409C395.205 79.5894 395.413 80.5892 395.754 81.5402C395.9 81.9791 395.864 82.3449 395.644 82.6375C395.449 82.9545 395.169 83.1617 394.803 83.2593C394.462 83.3568 394.096 83.3324 393.706 83.1861C393.34 83.0398 393.084 82.7472 392.938 82.3083C392.743 81.7474 392.608 81.1744 392.535 80.5892C392.462 80.004 392.389 79.4187 392.316 78.8335C392.267 78.2727 392.206 77.7118 392.133 77.151C392.084 76.5657 392.035 75.9927 391.987 75.4319C391.865 74.1151 391.779 72.8105 391.731 71.5182C391.706 70.2014 391.743 68.8846 391.84 67.5679Z" fill="url(#paint0_linear_318_7194)"/>
<defs>
<linearGradient id="paint0_linear_318_7194" x1="302.758" y1="28.091" x2="302.758" y2="103" gradientUnits="userSpaceOnUse">
<stop stop-color="#00D1FF"/>
<stop offset="1" stop-color="#00FFA3"/>
</linearGradient>
</defs>
</svg>
